<svg width="247" height="62" viewBox="0 0 247 62" fill="none" xmlns="http://www.w3.org/2000/svg">
<path d="M243.146 60.6072C243.018 61.088 243.304 61.5819 243.784 61.7103C244.265 61.8387 244.759 61.5531 244.887 61.0723L243.146 60.6072ZM0.809434 45.165C0.612247 45.6219 0.822784 46.1522 1.27968 46.3494L8.72524 49.5627C9.18214 49.7599 9.71237 49.5494 9.90956 49.0925C10.1067 48.6356 9.89621 48.1053 9.43932 47.9081L2.82104 45.0518L5.67735 38.4336C5.87454 37.9767 5.664 37.4464 5.2071 37.2492C4.75021 37.052 4.21997 37.2626 4.02278 37.7195L0.809434 45.165ZM8.82869 43.6602C9.29232 43.4794 9.52161 42.957 9.34083 42.4934C9.16004 42.0298 8.63764 41.8005 8.17401 41.9812L8.82869 43.6602ZM21.554 36.8611C21.0881 37.0359 20.8521 37.5553 21.0269 38.0213C21.2018 38.4872 21.7212 38.7231 22.1871 38.5483L21.554 36.8611ZM35.866 33.5258C36.3344 33.3577 36.5778 32.8417 36.4097 32.3733C36.2416 31.9049 35.7256 31.6615 35.2572 31.8296L35.866 33.5258ZM48.9401 27.0386C48.4692 27.1993 48.2176 27.7113 48.3783 28.1823C48.5389 28.6533 49.051 28.9049 49.5219 28.7442L48.9401 27.0386ZM63.1873 24.2139C63.661 24.0615 63.9216 23.554 63.7692 23.0803C63.6169 22.6065 63.1093 22.346 62.6356 22.4983L63.1873 24.2139ZM76.3827 18.2236C75.9061 18.3666 75.6356 18.8689 75.7785 19.3455C75.9215 19.8222 76.4238 20.0927 76.9005 19.9497L76.3827 18.2236ZM90.791 15.9503C91.2708 15.8181 91.5526 15.3221 91.4204 14.8423C91.2883 14.3625 90.7922 14.0807 90.3124 14.2129L90.791 15.9503ZM104.351 10.5374C103.868 10.657 103.573 11.1455 103.693 11.6285C103.812 12.1116 104.301 12.4062 104.784 12.2866L104.351 10.5374ZM118.843 9.02522C119.329 8.92033 119.639 8.44096 119.534 7.95451C119.429 7.46806 118.95 7.15873 118.463 7.26361L118.843 9.02522ZM132.653 4.46224C132.163 4.54956 131.837 5.0175 131.924 5.50741C132.012 5.99732 132.48 6.32368 132.97 6.23636L132.653 4.46224ZM147.194 4.00892C147.687 3.94302 148.033 3.48975 147.967 2.9965C147.901 2.50325 147.448 2.15681 146.955 2.22271L147.194 4.00892ZM161.452 0.671365C160.956 0.710291 160.585 1.14402 160.624 1.64013C160.663 2.13623 161.097 2.50685 161.593 2.46793L161.452 0.671365ZM175.949 1.81951C176.447 1.81509 176.846 1.40811 176.842 0.910494C176.837 0.412882 176.43 0.0130765 175.933 0.0175029L175.949 1.81951ZM190.473 0.527505C189.977 0.485888 189.541 0.854148 189.5 1.35004C189.458 1.84592 189.826 2.28166 190.322 2.32328L190.473 0.527505ZM204.482 4.37996C204.968 4.48485 205.448 4.17554 205.552 3.68909C205.657 3.20264 205.348 2.72326 204.862 2.61836L204.482 4.37996ZM218.821 6.93897C218.363 6.74518 217.834 6.95964 217.64 7.41799C217.447 7.87634 217.661 8.405 218.119 8.59879L218.821 6.93897ZM230.321 15.7287C230.709 16.0394 231.276 15.9763 231.587 15.5876C231.898 15.1989 231.835 14.6319 231.446 14.3211L230.321 15.7287ZM241.148 25.3733C240.895 24.9452 240.342 24.8037 239.914 25.0573C239.486 25.311 239.344 25.8636 239.598 26.2918L241.148 25.3733ZM244.38 39.4995C244.463 39.9901 244.928 40.3204 245.419 40.2372C245.91 40.154 246.24 39.6888 246.157 39.1982L244.38 39.4995ZM246.329 53.8758C246.395 53.3825 246.049 52.9292 245.556 52.8633C245.062 52.7975 244.609 53.1439 244.543 53.6372L246.329 53.8758ZM1.96923 46.3595C4.27624 45.4435 6.56267 44.5438 8.82869 43.6602L8.17401 41.9812C5.9045 42.8662 3.61462 43.7673 1.3042 44.6846L1.96923 46.3595ZM22.1871 38.5483C26.8372 36.8035 31.3963 35.1299 35.866 33.5258L35.2572 31.8296C30.7792 33.4368 26.212 35.1133 21.554 36.8611L22.1871 38.5483ZM49.5219 28.7442C54.1801 27.1552 58.7345 25.6459 63.1873 24.2139L62.6356 22.4983C58.1725 23.9337 53.608 25.4463 48.9401 27.0386L49.5219 28.7442ZM76.9005 19.9497C81.6548 18.5237 86.284 17.1917 90.791 15.9503L90.3124 14.2129C85.7919 15.4581 81.1496 16.7938 76.3827 18.2236L76.9005 19.9497ZM104.784 12.2866C109.624 11.0883 114.309 10.0029 118.843 9.02522L118.463 7.26361C113.91 8.24528 109.207 9.33489 104.351 10.5374L104.784 12.2866ZM132.97 6.23636C137.909 5.35594 142.648 4.61617 147.194 4.00892L146.955 2.22271C142.382 2.83361 137.617 3.57749 132.653 4.46224L132.97 6.23636ZM161.593 2.46793C166.655 2.07075 171.436 1.85966 175.949 1.81951L175.933 0.0175029C171.375 0.0580457 166.552 0.271173 161.452 0.671365L161.593 2.46793ZM190.322 2.32328C195.471 2.75541 200.181 3.45261 204.482 4.37996L204.862 2.61836C200.478 1.67317 195.691 0.96546 190.473 0.527505L190.322 2.32328ZM218.119 8.59879C222.917 10.6271 226.954 13.0373 230.321 15.7287L231.446 14.3211C227.939 11.5176 223.757 9.02571 218.821 6.93897L218.119 8.59879ZM239.598 26.2918C242.068 30.4608 243.605 34.9295 244.38 39.4995L246.157 39.1982C245.348 34.4301 243.74 29.749 241.148 25.3733L239.598 26.2918ZM244.543 53.6372C244.228 55.9998 243.754 58.3327 243.146 60.6072L244.887 61.0723C245.514 58.7269 246.003 56.3183 246.329 53.8758L244.543 53.6372Z" fill="#7C9DCE"/>
</svg>
