<svg width="29" height="30" viewBox="0 0 29 30" fill="none" xmlns="http://www.w3.org/2000/svg">
<path d="M23.2903 6.29282C20.9307 3.92759 17.7883 2.62671 14.4488 2.62671C7.55583 2.62671 1.94684 8.23569 1.94684 15.1287C1.94684 17.3306 2.52126 19.4818 3.61377 21.3796L1.83984 27.8559L8.46813 26.1157C10.2927 27.1125 12.3482 27.6362 14.4432 27.6362H14.4488C21.3361 27.6362 27.069 22.0273 27.069 15.1343C27.069 11.7948 25.6499 8.65806 23.2903 6.29282ZM14.4488 25.5301C12.5791 25.5301 10.7489 25.0289 9.15518 24.0828L8.77786 23.8575L4.84707 24.8881L5.89453 21.053L5.64674 20.6588C4.60492 19.0031 4.05866 17.0941 4.05866 15.1287C4.05866 9.40142 8.72155 4.73853 14.4544 4.73853C17.2308 4.73853 19.8382 5.81978 21.7979 7.78517C23.7577 9.75057 24.9628 12.358 24.9572 15.1343C24.9572 20.8672 20.176 25.5301 14.4488 25.5301ZM20.1479 17.7473C19.8382 17.5896 18.3007 16.835 18.0135 16.7336C17.7263 16.6266 17.518 16.576 17.3096 16.8913C17.1012 17.2067 16.5043 17.905 16.3185 18.119C16.1382 18.3274 15.9524 18.3555 15.6427 18.1978C13.8068 17.2799 12.6017 16.5591 11.3909 14.481C11.0699 13.9291 11.7119 13.9686 12.3088 12.7747C12.4102 12.5663 12.3595 12.3861 12.2807 12.2284C12.2018 12.0708 11.5767 10.5333 11.3177 9.90825C11.0643 9.30005 10.8052 9.38452 10.6137 9.37326C10.4335 9.362 10.2252 9.362 10.0168 9.362C9.80843 9.362 9.47054 9.44084 9.18333 9.75057C8.89613 10.0659 8.09082 10.8206 8.09082 12.358C8.09082 13.8954 9.21149 15.3821 9.36354 15.5904C9.52122 15.7988 11.5655 18.9525 14.7022 20.3097C16.6845 21.1656 17.4617 21.2388 18.4528 21.0924C19.0554 21.0023 20.2999 20.3378 20.559 19.6057C20.818 18.8736 20.818 18.2485 20.7392 18.119C20.666 17.9782 20.4576 17.8994 20.1479 17.7473Z" fill="white"/>
</svg>
