<svg width="109" height="88" viewBox="0 0 109 88" fill="none" xmlns="http://www.w3.org/2000/svg">
<g filter="url(#filter0_d_678_1354)">
<path d="M40.3528 40.4681L39.6211 41.1998L39.9242 41.5029H40.3528V40.4681ZM85.5393 70.8223C85.5393 73.8704 88.0102 76.3413 91.0583 76.3413C94.1063 76.3413 96.5772 73.8704 96.5772 70.8223C96.5772 67.7743 94.1063 65.3034 91.0583 65.3034C88.0102 65.3034 85.5393 67.7743 85.5393 70.8223ZM60.704 40.4681L61.4357 39.7363L61.1326 39.4332H60.704V40.4681ZM11.6814 13.26L39.6211 41.1998L41.0845 39.7363L13.1448 11.7966L11.6814 13.26ZM40.3528 41.5029H60.704V39.4332H40.3528V41.5029ZM59.9723 41.1998L90.3265 71.554L91.79 70.0906L61.4357 39.7363L59.9723 41.1998Z" fill="#247CFF"/>
</g>
<defs>
<filter id="filter0_d_678_1354" x="0.160326" y="0.27556" width="107.938" height="87.5866" filterUnits="userSpaceOnUse" color-interpolation-filters="sRGB">
<feFlood flood-opacity="0" result="BackgroundImageFix"/>
<feColorMatrix in="SourceAlpha" type="matrix" values="0 0 0 0 0 0 0 0 0 0 0 0 0 0 0 0 0 0 127 0" result="hardAlpha"/>
<feOffset/>
<feGaussianBlur stdDeviation="5.76041"/>
<feComposite in2="hardAlpha" operator="out"/>
<feColorMatrix type="matrix" values="0 0 0 0 1 0 0 0 0 1 0 0 0 0 1 0 0 0 1 0"/>
<feBlend mode="normal" in2="BackgroundImageFix" result="effect1_dropShadow_678_1354"/>
<feBlend mode="normal" in="SourceGraphic" in2="effect1_dropShadow_678_1354" result="shape"/>
</filter>
</defs>
</svg>
