<svg width="123" height="56" viewBox="0 0 123 56" fill="none" xmlns="http://www.w3.org/2000/svg">
<g filter="url(#filter0_d_678_1355)">
<path d="M50.2831 13.2969L50.9848 12.5363L50.6876 12.2621H50.2831V13.2969ZM99.9537 38.8221C99.9537 41.8701 102.425 44.341 105.473 44.341C108.521 44.341 110.992 41.8701 110.992 38.8221C110.992 35.774 108.521 33.3031 105.473 33.3031C102.425 33.3031 99.9537 35.774 99.9537 38.8221ZM77.9483 38.8221L77.2466 39.5826L77.5438 39.8569H77.9483V38.8221ZM11.6504 14.3317H50.2831V12.2621H11.6504V14.3317ZM49.5814 14.0574L77.2466 39.5826L78.65 38.0615L50.9848 12.5363L49.5814 14.0574ZM77.9483 39.8569H105.473V37.7873H77.9483V39.8569Z" fill="#247CFF"/>
</g>
<defs>
<filter id="filter0_d_678_1355" x="0.129564" y="0.741381" width="122.383" height="55.1203" filterUnits="userSpaceOnUse" color-interpolation-filters="sRGB">
<feFlood flood-opacity="0" result="BackgroundImageFix"/>
<feColorMatrix in="SourceAlpha" type="matrix" values="0 0 0 0 0 0 0 0 0 0 0 0 0 0 0 0 0 0 127 0" result="hardAlpha"/>
<feOffset/>
<feGaussianBlur stdDeviation="5.76041"/>
<feComposite in2="hardAlpha" operator="out"/>
<feColorMatrix type="matrix" values="0 0 0 0 1 0 0 0 0 1 0 0 0 0 1 0 0 0 1 0"/>
<feBlend mode="normal" in2="BackgroundImageFix" result="effect1_dropShadow_678_1355"/>
<feBlend mode="normal" in="SourceGraphic" in2="effect1_dropShadow_678_1355" result="shape"/>
</filter>
</defs>
</svg>
