<svg width="139" height="56" viewBox="0 0 139 56" fill="none" xmlns="http://www.w3.org/2000/svg">
<g filter="url(#filter0_d_678_1356)">
<path d="M81.8034 43.0561L81.1599 43.8665L81.4425 44.091L81.8034 44.091L81.8034 43.0561ZM23.2051 17.531C23.2051 14.4829 20.7342 12.012 17.6861 12.012C14.6381 12.012 12.1672 14.4829 12.1672 17.531C12.1672 20.579 14.6381 23.0499 17.6861 23.0499C20.7342 23.0499 23.2051 20.579 23.2051 17.531ZM49.663 17.531L50.3065 16.7206L50.0239 16.4962L49.663 16.4962L49.663 17.531ZM126.686 42.0213L81.8034 42.0213L81.8034 44.091L126.686 44.091L126.686 42.0213ZM82.447 42.2458L50.3065 16.7206L49.0194 18.3413L81.1599 43.8665L82.447 42.2458ZM49.663 16.4962L17.6861 16.4962L17.6861 18.5658L49.663 18.5658L49.663 16.4962Z" fill="#247CFF"/>
</g>
<defs>
<filter id="filter0_d_678_1356" x="0.646166" y="0.491381" width="137.56" height="55.1203" filterUnits="userSpaceOnUse" color-interpolation-filters="sRGB">
<feFlood flood-opacity="0" result="BackgroundImageFix"/>
<feColorMatrix in="SourceAlpha" type="matrix" values="0 0 0 0 0 0 0 0 0 0 0 0 0 0 0 0 0 0 127 0" result="hardAlpha"/>
<feOffset/>
<feGaussianBlur stdDeviation="5.76041"/>
<feComposite in2="hardAlpha" operator="out"/>
<feColorMatrix type="matrix" values="0 0 0 0 1 0 0 0 0 1 0 0 0 0 1 0 0 0 1 0"/>
<feBlend mode="normal" in2="BackgroundImageFix" result="effect1_dropShadow_678_1356"/>
<feBlend mode="normal" in="SourceGraphic" in2="effect1_dropShadow_678_1356" result="shape"/>
</filter>
</defs>
</svg>
