<svg width="144" height="57" viewBox="0 0 144 57" fill="none" xmlns="http://www.w3.org/2000/svg">
<g filter="url(#filter0_d_678_1357)">
<path d="M84.7897 13.043L84.1449 12.2336L84.4279 12.0082L84.7897 12.0082L84.7897 13.043ZM22.9449 39.9479C22.9449 42.9959 20.474 45.4669 17.4259 45.4669C14.3779 45.4669 11.907 42.9959 11.907 39.9479C11.907 36.8999 14.3779 34.4289 17.4259 34.4289C20.474 34.4289 22.9449 36.8999 22.9449 39.9479ZM51.0219 39.9479L51.6667 40.7572L51.3837 40.9827L51.0219 40.9827L51.0219 39.9479ZM131.944 14.0778L84.7897 14.0778L84.7897 12.0082L131.944 12.0082L131.944 14.0778ZM85.4345 13.8523L51.6667 40.7572L50.3771 39.1386L84.1449 12.2336L85.4345 13.8523ZM51.0219 40.9827L17.4259 40.9827L17.4259 38.9131L51.0219 38.9131L51.0219 40.9827Z" fill="#247CFF"/>
</g>
<defs>
<filter id="filter0_d_678_1357" x="0.385912" y="0.487474" width="143.079" height="56.5001" filterUnits="userSpaceOnUse" color-interpolation-filters="sRGB">
<feFlood flood-opacity="0" result="BackgroundImageFix"/>
<feColorMatrix in="SourceAlpha" type="matrix" values="0 0 0 0 0 0 0 0 0 0 0 0 0 0 0 0 0 0 127 0" result="hardAlpha"/>
<feOffset/>
<feGaussianBlur stdDeviation="5.76041"/>
<feComposite in2="hardAlpha" operator="out"/>
<feColorMatrix type="matrix" values="0 0 0 0 1 0 0 0 0 1 0 0 0 0 1 0 0 0 1 0"/>
<feBlend mode="normal" in2="BackgroundImageFix" result="effect1_dropShadow_678_1357"/>
<feBlend mode="normal" in="SourceGraphic" in2="effect1_dropShadow_678_1357" result="shape"/>
</filter>
</defs>
</svg>
