<svg width="26" height="25" viewBox="0 0 26 25" fill="none" xmlns="http://www.w3.org/2000/svg">
<path d="M21.5938 23.4375H4.40625C3.11182 23.4375 2.0625 22.3882 2.0625 21.0938V3.90625C2.0625 2.61182 3.11182 1.5625 4.40625 1.5625H21.5938C22.8882 1.5625 23.9375 2.61182 23.9375 3.90625V21.0938C23.9375 22.3882 22.8882 23.4375 21.5938 23.4375ZM11.5993 18.6495L20.5837 9.66509C20.8888 9.36001 20.8888 8.86533 20.5837 8.56025L19.4789 7.45542C19.1738 7.15034 18.6791 7.15029 18.374 7.45542L11.0469 14.7825L7.62603 11.3616C7.32095 11.0565 6.82627 11.0565 6.52114 11.3616L5.41631 12.4665C5.11123 12.7715 5.11123 13.2662 5.41631 13.5713L10.4944 18.6494C10.7996 18.9546 11.2942 18.9546 11.5993 18.6495Z" fill="#898989"/>
</svg>
