<svg width="15" height="15" viewBox="0 0 15 15" fill="none" xmlns="http://www.w3.org/2000/svg">
<g clip-path="url(#clip0_1062_366)">
<path d="M7.5 0.234375C3.48633 0.234375 0.234375 3.48633 0.234375 7.5C0.234375 11.5137 3.48633 14.7656 7.5 14.7656C11.5137 14.7656 14.7656 11.5137 14.7656 7.5C14.7656 3.48633 11.5137 0.234375 7.5 0.234375ZM9.17285 10.4912L6.58887 8.61328C6.49805 8.5459 6.44531 8.44043 6.44531 8.3291V3.39844C6.44531 3.20508 6.60352 3.04688 6.79688 3.04688H8.20312C8.39648 3.04688 8.55469 3.20508 8.55469 3.39844V7.43262L10.415 8.78613C10.5732 8.90039 10.6055 9.12012 10.4912 9.27832L9.66504 10.415C9.55078 10.5703 9.33105 10.6055 9.17285 10.4912Z" fill="#9D9D9D"/>
</g>
<defs>
<clipPath id="clip0_1062_366">
<rect width="15" height="15" fill="white"/>
</clipPath>
</defs>
</svg>
