<svg width="22" height="22" viewBox="0 0 22 22" fill="none" xmlns="http://www.w3.org/2000/svg">
<rect width="22" height="22" rx="3.66667" fill="#898989"/>
<path d="M13.6281 11.4584L17.5697 7.51686C18.0534 7.03317 18.0534 6.24895 17.5697 5.76488L16.6937 4.88889C16.21 4.4052 15.4258 4.4052 14.9417 4.88889L11.0002 8.83045L7.0586 4.88889C6.57492 4.4052 5.7907 4.4052 5.30662 4.88889L4.43063 5.76488C3.94695 6.24856 3.94695 7.03278 4.43063 7.51686L8.37219 11.4584L4.43063 15.4C3.94695 15.8837 3.94695 16.6679 4.43063 17.152L5.30662 18.0279C5.79031 18.5116 6.57492 18.5116 7.0586 18.0279L11.0002 14.0864L14.9417 18.0279C15.4254 18.5116 16.21 18.5116 16.6937 18.0279L17.5697 17.152C18.0534 16.6683 18.0534 15.8841 17.5697 15.4L13.6281 11.4584Z" fill="white"/>
</svg>
