<svg width="22" height="23" viewBox="0 0 22 23" fill="none" xmlns="http://www.w3.org/2000/svg">
<rect y="0.5" width="22" height="22" rx="3.66667" fill="#FF0000"/>
<path d="M13.6281 11.9584L17.5697 8.01686C18.0534 7.53317 18.0534 6.74895 17.5697 6.26488L16.6937 5.38889C16.21 4.9052 15.4258 4.9052 14.9417 5.38889L11.0002 9.33045L7.0586 5.38889C6.57492 4.9052 5.7907 4.9052 5.30662 5.38889L4.43063 6.26488C3.94695 6.74856 3.94695 7.53278 4.43063 8.01686L8.37219 11.9584L4.43063 15.9C3.94695 16.3837 3.94695 17.1679 4.43063 17.652L5.30662 18.5279C5.79031 19.0116 6.57492 19.0116 7.0586 18.5279L11.0002 14.5864L14.9417 18.5279C15.4254 19.0116 16.21 19.0116 16.6937 18.5279L17.5697 17.652C18.0534 17.1683 18.0534 16.3841 17.5697 15.9L13.6281 11.9584Z" fill="white"/>
</svg>
