<svg width="118" height="22" viewBox="0 0 118 22" fill="none" xmlns="http://www.w3.org/2000/svg">
<rect width="22" height="22" fill="#1DB47D"/>
<g clip-path="url(#clip0_42_323)">
<path d="M9.86982 16.13C9.53592 16.4337 9.15342 16.6727 8.78982 16.94C7.76982 17.6855 6.74682 18.4275 5.72082 19.1661C5.66952 19.2035 5.61957 19.2849 5.55207 19.2399C5.47017 19.1859 5.53767 19.109 5.55927 19.0428C5.92767 17.9043 6.29622 16.766 6.66492 15.6278C6.93492 14.7995 7.20492 13.9713 7.47492 13.1433C7.50732 13.0457 7.53252 12.975 7.42362 12.8967C5.76942 11.7 4.11747 10.5017 2.46777 9.30169V9.0344C2.55777 9.0299 2.64507 9.0209 2.73372 9.0209C4.66422 9.0209 6.59427 9.01775 8.52477 9.0245C8.73132 9.0245 8.83752 8.9795 8.90277 8.7608C9.12777 7.9958 9.38292 7.23845 9.62997 6.4793C10.0332 5.2358 10.4391 3.99259 10.8477 2.74969H10.9377C11.1267 3.34819 11.313 3.9476 11.5047 4.54519C11.8212 5.53159 12.1393 6.5171 12.4591 7.5017C12.6072 7.95935 12.7579 8.4161 12.9024 8.87465C12.9316 8.96464 12.9802 9.00964 13.0761 9.00964C13.1719 9.00964 13.2691 9.0182 13.3654 9.0182H19.1988C19.2658 9.0182 19.3338 9.0182 19.399 9.0182C19.4494 9.0182 19.5129 9.01009 19.5291 9.07534C19.5453 9.14059 19.4841 9.16175 19.4445 9.1919C19.038 9.488 18.6316 9.78409 18.2254 10.0802L14.4598 12.8184C14.3824 12.8747 14.2983 12.9242 14.2483 13.0106C14.1583 12.9795 14.0985 13.0245 14.0292 13.0767C13.7997 13.2509 13.563 13.416 13.329 13.5843L11.3517 15.0095C11.2468 15.0095 11.1361 14.9982 11.1235 15.1485V15.1458C11.0533 15.1364 11.0259 15.171 11.0286 15.2358L10.9417 15.3564C10.885 15.4059 10.7721 15.3753 10.7572 15.4856L10.7491 15.4982H10.7343L10.6708 15.5463L10.6209 15.5823C10.5561 15.5823 10.4922 15.5823 10.4913 15.6723C10.4463 15.6723 10.4112 15.6885 10.4058 15.7407L10.3698 15.77C10.2397 15.7565 10.1731 15.8294 10.1349 15.9414L10.1281 15.9513L10.1164 15.9482C10.1009 15.949 10.0861 15.9549 10.0741 15.9649C10.0622 15.9748 10.0538 15.9884 10.0503 16.0035L10.0053 16.035C9.93687 16.0314 9.86892 16.0301 9.86982 16.13Z" fill="white"/>
<path d="M10.7588 15.4906C10.7736 15.3803 10.8866 15.4109 10.9433 15.3614C11.3712 15.3092 11.7776 15.1688 12.1916 15.0604C13.0223 14.843 13.8539 14.6311 14.685 14.4169C14.8776 14.8111 14.9744 15.2386 15.1121 15.6512C15.4325 16.6133 15.7394 17.5804 16.0521 18.5452C16.1138 18.7351 16.1786 18.9245 16.2407 19.1144C16.2537 19.1545 16.2893 19.2044 16.2438 19.2359C16.1984 19.2674 16.1471 19.2359 16.1039 19.204C15.8111 18.9898 15.5178 18.7763 15.2241 18.5636C13.8345 17.5553 12.4455 16.5461 11.0571 15.536C10.9577 15.4631 10.8704 15.4294 10.7588 15.4906Z" fill="white"/>
<path d="M10.1348 15.941C10.173 15.8289 10.2396 15.756 10.3697 15.7695C10.3035 15.8429 10.2351 15.9144 10.1348 15.941Z" fill="white"/>
<path d="M10.4927 15.6773C10.4927 15.5873 10.5575 15.5873 10.6223 15.5873C10.6111 15.6128 10.5931 15.6347 10.5702 15.6506C10.5473 15.6665 10.5205 15.6757 10.4927 15.6773Z" fill="white"/>
<path d="M9.87012 16.13C9.87012 16.0319 9.93717 16.0332 10.0051 16.0364C9.99285 16.0625 9.9739 16.0849 9.9502 16.1013C9.92649 16.1178 9.89887 16.1276 9.87012 16.13Z" fill="white"/>
<path d="M10.4072 15.7457C10.4126 15.6935 10.4473 15.6787 10.4927 15.6773C10.4867 15.6958 10.4754 15.7122 10.4602 15.7243C10.445 15.7365 10.4266 15.7439 10.4072 15.7457Z" fill="white"/>
<path d="M10.0503 16.0031C10.0539 15.988 10.0622 15.9744 10.0742 15.9644C10.0861 15.9545 10.1009 15.9486 10.1164 15.9478L10.0503 16.0031Z" fill="white"/>
<path d="M11.3521 15.0127C11.2905 15.0824 11.2221 15.1418 11.1235 15.1517C11.1352 15.0014 11.2473 15.0118 11.3521 15.0127Z" fill="white"/>
<path d="M11.1249 15.149C11.1213 15.2089 11.0831 15.2323 11.03 15.239C11.0273 15.1742 11.0547 15.14 11.1249 15.149Z" fill="white"/>
</g>
<rect width="22" height="22" transform="translate(24)" fill="#1DB47D"/>
<g clip-path="url(#clip1_42_323)">
<path d="M33.8698 16.13C33.5359 16.4337 33.1534 16.6727 32.7898 16.94C31.7698 17.6855 30.7468 18.4275 29.7208 19.1661C29.6695 19.2035 29.6196 19.2849 29.5521 19.2399C29.4702 19.1859 29.5377 19.109 29.5593 19.0428C29.9277 17.9043 30.2962 16.766 30.6649 15.6278C30.9349 14.7995 31.2049 13.9713 31.4749 13.1433C31.5073 13.0457 31.5325 12.975 31.4236 12.8967C29.7694 11.7 28.1175 10.5017 26.4678 9.30169V9.0344C26.5578 9.0299 26.6451 9.0209 26.7337 9.0209C28.6642 9.0209 30.5943 9.01775 32.5248 9.0245C32.7313 9.0245 32.8375 8.9795 32.9028 8.7608C33.1278 7.9958 33.3829 7.23845 33.63 6.4793C34.0332 5.2358 34.4391 3.99259 34.8477 2.74969H34.9377C35.1267 3.34819 35.313 3.9476 35.5047 4.54519C35.8212 5.53159 36.1393 6.5171 36.4591 7.5017C36.6072 7.95935 36.7579 8.4161 36.9024 8.87465C36.9316 8.96464 36.9802 9.00964 37.0761 9.00964C37.1719 9.00964 37.2691 9.0182 37.3654 9.0182H43.1988C43.2658 9.0182 43.3338 9.0182 43.399 9.0182C43.4494 9.0182 43.5129 9.01009 43.5291 9.07534C43.5453 9.14059 43.4841 9.16175 43.4445 9.1919C43.038 9.488 42.6316 9.78409 42.2254 10.0802L38.4598 12.8184C38.3824 12.8747 38.2983 12.9242 38.2483 13.0106C38.1583 12.9795 38.0985 13.0245 38.0292 13.0767C37.7997 13.2509 37.563 13.416 37.329 13.5843L35.3517 15.0095C35.2468 15.0095 35.1361 14.9982 35.1235 15.1485V15.1458C35.0533 15.1364 35.0259 15.171 35.0286 15.2358L34.9417 15.3564C34.885 15.4059 34.7721 15.3753 34.7572 15.4856L34.7491 15.4982H34.7343L34.6708 15.5463L34.6209 15.5823C34.5561 15.5823 34.4922 15.5823 34.4913 15.6723C34.4463 15.6723 34.4112 15.6885 34.4058 15.7407L34.3698 15.77C34.2397 15.7565 34.1731 15.8294 34.1349 15.9414L34.1281 15.9513L34.1164 15.9482C34.1009 15.949 34.0861 15.9549 34.0741 15.9649C34.0622 15.9748 34.0538 15.9884 34.0503 16.0035L34.0053 16.035C33.9369 16.0314 33.8689 16.0301 33.8698 16.13Z" fill="white"/>
<path d="M34.7588 15.4906C34.7736 15.3803 34.8866 15.4109 34.9433 15.3614C35.3712 15.3092 35.7776 15.1688 36.1916 15.0604C37.0223 14.843 37.8539 14.6311 38.685 14.4169C38.8776 14.8111 38.9744 15.2386 39.1121 15.6512C39.4325 16.6133 39.7394 17.5804 40.0521 18.5452C40.1138 18.7351 40.1786 18.9245 40.2407 19.1144C40.2537 19.1545 40.2893 19.2044 40.2438 19.2359C40.1984 19.2674 40.1471 19.2359 40.1039 19.204C39.8111 18.9898 39.5178 18.7763 39.2241 18.5636C37.8345 17.5553 36.4455 16.5461 35.0571 15.536C34.9577 15.4631 34.8704 15.4294 34.7588 15.4906Z" fill="white"/>
<path d="M34.1348 15.941C34.173 15.8289 34.2396 15.756 34.3697 15.7695C34.3035 15.8429 34.2351 15.9144 34.1348 15.941Z" fill="white"/>
<path d="M34.4927 15.6773C34.4927 15.5873 34.5575 15.5873 34.6223 15.5873C34.6111 15.6128 34.5931 15.6347 34.5702 15.6506C34.5473 15.6665 34.5205 15.6757 34.4927 15.6773Z" fill="white"/>
<path d="M33.8701 16.13C33.8701 16.0319 33.9372 16.0332 34.0051 16.0364C33.9928 16.0625 33.9739 16.0849 33.9502 16.1013C33.9265 16.1178 33.8989 16.1276 33.8701 16.13Z" fill="white"/>
<path d="M34.4072 15.7457C34.4126 15.6935 34.4473 15.6787 34.4927 15.6773C34.4867 15.6958 34.4754 15.7122 34.4602 15.7243C34.445 15.7365 34.4266 15.7439 34.4072 15.7457Z" fill="white"/>
<path d="M34.0503 16.0031C34.0539 15.988 34.0622 15.9744 34.0742 15.9644C34.0861 15.9545 34.1009 15.9486 34.1164 15.9478L34.0503 16.0031Z" fill="white"/>
<path d="M35.3521 15.0127C35.2905 15.0824 35.2221 15.1418 35.1235 15.1517C35.1352 15.0014 35.2473 15.0118 35.3521 15.0127Z" fill="white"/>
<path d="M35.1249 15.149C35.1213 15.2089 35.0831 15.2323 35.03 15.239C35.0273 15.1742 35.0547 15.14 35.1249 15.149Z" fill="white"/>
</g>
<rect width="22" height="22" transform="translate(48)" fill="#1DB47D"/>
<g clip-path="url(#clip2_42_323)">
<path d="M57.8698 16.13C57.5359 16.4337 57.1534 16.6727 56.7898 16.94C55.7698 17.6855 54.7468 18.4275 53.7208 19.1661C53.6695 19.2035 53.6196 19.2849 53.5521 19.2399C53.4702 19.1859 53.5377 19.109 53.5593 19.0428C53.9277 17.9043 54.2962 16.766 54.6649 15.6278C54.9349 14.7995 55.2049 13.9713 55.4749 13.1433C55.5073 13.0457 55.5325 12.975 55.4236 12.8967C53.7694 11.7 52.1175 10.5017 50.4678 9.30169V9.0344C50.5578 9.0299 50.6451 9.0209 50.7337 9.0209C52.6642 9.0209 54.5943 9.01775 56.5248 9.0245C56.7313 9.0245 56.8375 8.9795 56.9028 8.7608C57.1278 7.9958 57.3829 7.23845 57.63 6.4793C58.0332 5.2358 58.4391 3.99259 58.8477 2.74969H58.9377C59.1267 3.34819 59.313 3.9476 59.5047 4.54519C59.8212 5.53159 60.1393 6.5171 60.4591 7.5017C60.6072 7.95935 60.7579 8.4161 60.9024 8.87465C60.9316 8.96464 60.9802 9.00964 61.0761 9.00964C61.1719 9.00964 61.2691 9.0182 61.3654 9.0182H67.1988C67.2658 9.0182 67.3338 9.0182 67.399 9.0182C67.4494 9.0182 67.5129 9.01009 67.5291 9.07534C67.5453 9.14059 67.4841 9.16175 67.4445 9.1919C67.038 9.488 66.6316 9.78409 66.2254 10.0802L62.4598 12.8184C62.3824 12.8747 62.2983 12.9242 62.2483 13.0106C62.1583 12.9795 62.0985 13.0245 62.0292 13.0767C61.7997 13.2509 61.563 13.416 61.329 13.5843L59.3517 15.0095C59.2468 15.0095 59.1361 14.9982 59.1235 15.1485V15.1458C59.0533 15.1364 59.0259 15.171 59.0286 15.2358L58.9417 15.3564C58.885 15.4059 58.7721 15.3753 58.7572 15.4856L58.7491 15.4982H58.7343L58.6708 15.5463L58.6209 15.5823C58.5561 15.5823 58.4922 15.5823 58.4913 15.6723C58.4463 15.6723 58.4112 15.6885 58.4058 15.7407L58.3698 15.77C58.2397 15.7565 58.1731 15.8294 58.1349 15.9414L58.1281 15.9513L58.1164 15.9482C58.1009 15.949 58.0861 15.9549 58.0741 15.9649C58.0622 15.9748 58.0538 15.9884 58.0503 16.0035L58.0053 16.035C57.9369 16.0314 57.8689 16.0301 57.8698 16.13Z" fill="white"/>
<path d="M58.7588 15.4906C58.7736 15.3803 58.8866 15.4109 58.9433 15.3614C59.3712 15.3092 59.7776 15.1688 60.1916 15.0604C61.0223 14.843 61.8539 14.6311 62.685 14.4169C62.8776 14.8111 62.9744 15.2386 63.1121 15.6512C63.4325 16.6133 63.7394 17.5804 64.0521 18.5452C64.1138 18.7351 64.1786 18.9245 64.2407 19.1144C64.2537 19.1545 64.2893 19.2044 64.2438 19.2359C64.1984 19.2674 64.1471 19.2359 64.1039 19.204C63.8111 18.9898 63.5178 18.7763 63.2241 18.5636C61.8345 17.5553 60.4455 16.5461 59.0571 15.536C58.9577 15.4631 58.8704 15.4294 58.7588 15.4906Z" fill="white"/>
<path d="M58.1348 15.941C58.173 15.8289 58.2396 15.756 58.3697 15.7695C58.3035 15.8429 58.2351 15.9144 58.1348 15.941Z" fill="white"/>
<path d="M58.4927 15.6773C58.4927 15.5873 58.5575 15.5873 58.6223 15.5873C58.6111 15.6128 58.5931 15.6347 58.5702 15.6506C58.5473 15.6665 58.5205 15.6757 58.4927 15.6773Z" fill="white"/>
<path d="M57.8701 16.13C57.8701 16.0319 57.9372 16.0332 58.0051 16.0364C57.9928 16.0625 57.9739 16.0849 57.9502 16.1013C57.9265 16.1178 57.8989 16.1276 57.8701 16.13Z" fill="white"/>
<path d="M58.4072 15.7457C58.4126 15.6935 58.4473 15.6787 58.4927 15.6773C58.4867 15.6958 58.4754 15.7122 58.4602 15.7243C58.445 15.7365 58.4266 15.7439 58.4072 15.7457Z" fill="white"/>
<path d="M58.0503 16.0031C58.0539 15.988 58.0622 15.9744 58.0742 15.9644C58.0861 15.9545 58.1009 15.9486 58.1164 15.9478L58.0503 16.0031Z" fill="white"/>
<path d="M59.3521 15.0127C59.2905 15.0824 59.2221 15.1418 59.1235 15.1517C59.1352 15.0014 59.2473 15.0118 59.3521 15.0127Z" fill="white"/>
<path d="M59.1249 15.149C59.1213 15.2089 59.0831 15.2323 59.03 15.239C59.0273 15.1742 59.0547 15.14 59.1249 15.149Z" fill="white"/>
</g>
<rect width="22" height="22" transform="translate(72)" fill="#1DB47D"/>
<g clip-path="url(#clip3_42_323)">
<path d="M81.8698 16.13C81.5359 16.4337 81.1534 16.6727 80.7898 16.94C79.7698 17.6855 78.7468 18.4275 77.7208 19.1661C77.6695 19.2035 77.6196 19.2849 77.5521 19.2399C77.4702 19.1859 77.5377 19.109 77.5593 19.0428C77.9277 17.9043 78.2962 16.766 78.6649 15.6278C78.9349 14.7995 79.2049 13.9713 79.4749 13.1433C79.5073 13.0457 79.5325 12.975 79.4236 12.8967C77.7694 11.7 76.1175 10.5017 74.4678 9.30169V9.0344C74.5578 9.0299 74.6451 9.0209 74.7337 9.0209C76.6642 9.0209 78.5943 9.01775 80.5248 9.0245C80.7313 9.0245 80.8375 8.9795 80.9028 8.7608C81.1278 7.9958 81.3829 7.23845 81.63 6.4793C82.0332 5.2358 82.4391 3.99259 82.8477 2.74969H82.9377C83.1267 3.34819 83.313 3.9476 83.5047 4.54519C83.8212 5.53159 84.1393 6.5171 84.4591 7.5017C84.6072 7.95935 84.7579 8.4161 84.9024 8.87465C84.9316 8.96464 84.9802 9.00964 85.0761 9.00964C85.1719 9.00964 85.2691 9.0182 85.3654 9.0182H91.1988C91.2658 9.0182 91.3338 9.0182 91.399 9.0182C91.4494 9.0182 91.5129 9.01009 91.5291 9.07534C91.5453 9.14059 91.4841 9.16175 91.4445 9.1919C91.038 9.488 90.6316 9.78409 90.2254 10.0802L86.4598 12.8184C86.3824 12.8747 86.2983 12.9242 86.2483 13.0106C86.1583 12.9795 86.0985 13.0245 86.0292 13.0767C85.7997 13.2509 85.563 13.416 85.329 13.5843L83.3517 15.0095C83.2468 15.0095 83.1361 14.9982 83.1235 15.1485V15.1458C83.0533 15.1364 83.0259 15.171 83.0286 15.2358L82.9417 15.3564C82.885 15.4059 82.7721 15.3753 82.7572 15.4856L82.7491 15.4982H82.7343L82.6708 15.5463L82.6209 15.5823C82.5561 15.5823 82.4922 15.5823 82.4913 15.6723C82.4463 15.6723 82.4112 15.6885 82.4058 15.7407L82.3698 15.77C82.2397 15.7565 82.1731 15.8294 82.1349 15.9414L82.1281 15.9513L82.1164 15.9482C82.1009 15.949 82.0861 15.9549 82.0741 15.9649C82.0622 15.9748 82.0538 15.9884 82.0503 16.0035L82.0053 16.035C81.9369 16.0314 81.8689 16.0301 81.8698 16.13Z" fill="white"/>
<path d="M82.7588 15.4906C82.7736 15.3803 82.8866 15.4109 82.9433 15.3614C83.3712 15.3092 83.7776 15.1688 84.1916 15.0604C85.0223 14.843 85.8539 14.6311 86.685 14.4169C86.8776 14.8111 86.9744 15.2386 87.1121 15.6512C87.4325 16.6133 87.7394 17.5804 88.0521 18.5452C88.1138 18.7351 88.1786 18.9245 88.2407 19.1144C88.2537 19.1545 88.2893 19.2044 88.2438 19.2359C88.1984 19.2674 88.1471 19.2359 88.1039 19.204C87.8111 18.9898 87.5178 18.7763 87.2241 18.5636C85.8345 17.5553 84.4455 16.5461 83.0571 15.536C82.9577 15.4631 82.8704 15.4294 82.7588 15.4906Z" fill="white"/>
<path d="M82.1348 15.941C82.173 15.8289 82.2396 15.756 82.3697 15.7695C82.3035 15.8429 82.2351 15.9144 82.1348 15.941Z" fill="white"/>
<path d="M82.4927 15.6773C82.4927 15.5873 82.5575 15.5873 82.6223 15.5873C82.6111 15.6128 82.5931 15.6347 82.5702 15.6506C82.5473 15.6665 82.5205 15.6757 82.4927 15.6773Z" fill="white"/>
<path d="M81.8701 16.13C81.8701 16.0319 81.9372 16.0332 82.0051 16.0364C81.9928 16.0625 81.9739 16.0849 81.9502 16.1013C81.9265 16.1178 81.8989 16.1276 81.8701 16.13Z" fill="white"/>
<path d="M82.4072 15.7457C82.4126 15.6935 82.4473 15.6787 82.4927 15.6773C82.4867 15.6958 82.4754 15.7122 82.4602 15.7243C82.445 15.7365 82.4266 15.7439 82.4072 15.7457Z" fill="white"/>
<path d="M82.0503 16.0031C82.0539 15.988 82.0622 15.9744 82.0742 15.9644C82.0861 15.9545 82.1009 15.9486 82.1164 15.9478L82.0503 16.0031Z" fill="white"/>
<path d="M83.3521 15.0127C83.2905 15.0824 83.2221 15.1418 83.1235 15.1517C83.1352 15.0014 83.2473 15.0118 83.3521 15.0127Z" fill="white"/>
<path d="M83.1249 15.149C83.1213 15.2089 83.0831 15.2323 83.03 15.239C83.0273 15.1742 83.0547 15.14 83.1249 15.149Z" fill="white"/>
</g>
<rect width="22" height="22" transform="translate(96)" fill="#1DB47D"/>
<g clip-path="url(#clip4_42_323)">
<path d="M105.87 16.13C105.536 16.4337 105.153 16.6727 104.79 16.94C103.77 17.6855 102.747 18.4275 101.721 19.1661C101.67 19.2035 101.62 19.2849 101.552 19.2399C101.47 19.1859 101.538 19.109 101.559 19.0428C101.928 17.9043 102.296 16.766 102.665 15.6278C102.935 14.7995 103.205 13.9713 103.475 13.1433C103.507 13.0457 103.533 12.975 103.424 12.8967C101.769 11.7 100.117 10.5017 98.4678 9.30169V9.0344C98.5578 9.0299 98.6451 9.0209 98.7337 9.0209C100.664 9.0209 102.594 9.01775 104.525 9.0245C104.731 9.0245 104.838 8.9795 104.903 8.7608C105.128 7.9958 105.383 7.23845 105.63 6.4793C106.033 5.2358 106.439 3.99259 106.848 2.74969H106.938C107.127 3.34819 107.313 3.9476 107.505 4.54519C107.821 5.53159 108.139 6.5171 108.459 7.5017C108.607 7.95935 108.758 8.4161 108.902 8.87465C108.932 8.96464 108.98 9.00964 109.076 9.00964C109.172 9.00964 109.269 9.0182 109.365 9.0182H115.199C115.266 9.0182 115.334 9.0182 115.399 9.0182C115.449 9.0182 115.513 9.01009 115.529 9.07534C115.545 9.14059 115.484 9.16175 115.444 9.1919C115.038 9.488 114.632 9.78409 114.225 10.0802L110.46 12.8184C110.382 12.8747 110.298 12.9242 110.248 13.0106C110.158 12.9795 110.098 13.0245 110.029 13.0767C109.8 13.2509 109.563 13.416 109.329 13.5843L107.352 15.0095C107.247 15.0095 107.136 14.9982 107.124 15.1485V15.1458C107.053 15.1364 107.026 15.171 107.029 15.2358L106.942 15.3564C106.885 15.4059 106.772 15.3753 106.757 15.4856L106.749 15.4982H106.734L106.671 15.5463L106.621 15.5823C106.556 15.5823 106.492 15.5823 106.491 15.6723C106.446 15.6723 106.411 15.6885 106.406 15.7407L106.37 15.77C106.24 15.7565 106.173 15.8294 106.135 15.9414L106.128 15.9513L106.116 15.9482C106.101 15.949 106.086 15.9549 106.074 15.9649C106.062 15.9748 106.054 15.9884 106.05 16.0035L106.005 16.035C105.937 16.0314 105.869 16.0301 105.87 16.13Z" fill="white"/>
<path d="M106.759 15.4906C106.774 15.3803 106.887 15.4109 106.943 15.3614C107.371 15.3092 107.778 15.1688 108.192 15.0604C109.022 14.843 109.854 14.6311 110.685 14.4169C110.878 14.8111 110.974 15.2386 111.112 15.6512C111.432 16.6133 111.739 17.5804 112.052 18.5452C112.114 18.7351 112.179 18.9245 112.241 19.1144C112.254 19.1545 112.289 19.2044 112.244 19.2359C112.198 19.2674 112.147 19.2359 112.104 19.204C111.811 18.9898 111.518 18.7763 111.224 18.5636C109.835 17.5553 108.446 16.5461 107.057 15.536C106.958 15.4631 106.87 15.4294 106.759 15.4906Z" fill="white"/>
<path d="M106.135 15.941C106.173 15.8289 106.24 15.756 106.37 15.7695C106.304 15.8429 106.235 15.9144 106.135 15.941Z" fill="white"/>
<path d="M106.493 15.6773C106.493 15.5873 106.557 15.5873 106.622 15.5873C106.611 15.6128 106.593 15.6347 106.57 15.6506C106.547 15.6665 106.52 15.6757 106.493 15.6773Z" fill="white"/>
<path d="M105.87 16.13C105.87 16.0319 105.937 16.0332 106.005 16.0364C105.993 16.0625 105.974 16.0849 105.95 16.1013C105.926 16.1178 105.899 16.1276 105.87 16.13Z" fill="white"/>
<path d="M106.407 15.7457C106.413 15.6935 106.447 15.6787 106.493 15.6773C106.487 15.6958 106.475 15.7122 106.46 15.7243C106.445 15.7365 106.427 15.7439 106.407 15.7457Z" fill="white"/>
<path d="M106.05 16.0031C106.054 15.988 106.062 15.9744 106.074 15.9644C106.086 15.9545 106.101 15.9486 106.116 15.9478L106.05 16.0031Z" fill="white"/>
<path d="M107.352 15.0127C107.29 15.0824 107.222 15.1418 107.124 15.1517C107.135 15.0014 107.247 15.0118 107.352 15.0127Z" fill="white"/>
<path d="M107.125 15.149C107.121 15.2089 107.083 15.2323 107.03 15.239C107.027 15.1742 107.055 15.14 107.125 15.149Z" fill="white"/>
</g>
<defs>
<clipPath id="clip0_42_323">
<rect width="18" height="18" fill="white" transform="translate(2 2)"/>
</clipPath>
<clipPath id="clip1_42_323">
<rect width="18" height="18" fill="white" transform="translate(26 2)"/>
</clipPath>
<clipPath id="clip2_42_323">
<rect width="18" height="18" fill="white" transform="translate(50 2)"/>
</clipPath>
<clipPath id="clip3_42_323">
<rect width="18" height="18" fill="white" transform="translate(74 2)"/>
</clipPath>
<clipPath id="clip4_42_323">
<rect width="18" height="18" fill="white" transform="translate(98 2)"/>
</clipPath>
</defs>
</svg>
