<svg width="182" height="35" viewBox="0 0 182 35" fill="none" xmlns="http://www.w3.org/2000/svg">
<g clip-path="url(#clip0_1146_816)">
<path d="M34.0633 0.316406H0V34.3797H34.0633V0.316406Z" fill="#00B67A"/>
<path d="M70.9656 0.316406H36.9023V34.3797H70.9656V0.316406Z" fill="#00B67A"/>
<path d="M107.868 0.316406H73.8047V34.3797H107.868V0.316406Z" fill="#00B67A"/>
<path d="M144.768 0.316406H110.705V34.3797H144.768V0.316406Z" fill="#00B67A"/>
<path d="M181.671 0.316406H147.607V34.3797H181.671V0.316406Z" fill="#00B67A"/>
<path d="M17.0315 23.2735L22.212 21.9607L24.3764 28.6314L17.0315 23.2735ZM28.9537 14.6512H19.8347L17.0315 6.06445L14.2284 14.6512H5.10938L12.4898 19.9736L9.68663 28.5604L17.067 23.238L21.6088 19.9736L28.9537 14.6512Z" fill="white"/>
<path d="M53.9339 23.2735L59.1143 21.9607L61.2788 28.6314L53.9339 23.2735ZM65.856 14.6512H56.737L53.9339 6.06445L51.1307 14.6512H42.0117L49.3921 19.9736L46.589 28.5604L53.9694 23.238L58.5111 19.9736L65.856 14.6512Z" fill="white"/>
<path d="M90.8362 23.2735L96.0167 21.9607L98.1811 28.6314L90.8362 23.2735ZM102.758 14.6512H93.6393L90.8362 6.06445L88.0331 14.6512H78.9141L86.2944 19.9736L83.4913 28.5604L90.8717 23.238L95.4135 19.9736L102.758 14.6512Z" fill="white"/>
<path d="M127.739 23.2735L132.919 21.9607L135.083 28.6314L127.739 23.2735ZM139.661 14.6512H130.542L127.739 6.06445L124.935 14.6512H115.816L123.197 19.9736L120.394 28.5604L127.774 23.238L132.316 19.9736L139.661 14.6512Z" fill="white"/>
<path d="M164.639 23.2735L169.819 21.9607L171.984 28.6314L164.639 23.2735ZM176.561 14.6512H167.442L164.639 6.06445L161.836 14.6512H152.717L160.097 19.9736L157.294 28.5604L164.674 23.238L169.216 19.9736L176.561 14.6512Z" fill="white"/>
</g>
<defs>
<clipPath id="clip0_1146_816">
<rect width="181.671" height="34.0633" fill="white" transform="translate(0 0.316406)"/>
</clipPath>
</defs>
</svg>
